# xmcd CD database file
#
# Track frame offsets:
#	150
#	11738
#	29600
#	42525
#
# Disc length: 765 seconds
#
# Revision: 2
# Processed by: cddbd v1.5.2PL0 Copyright (c) Steve Scherf et al.
# Submitted via: CDex 1.70beta2
#
DISCID=3002fb04
DTITLE=the ピーズ - '09初夏盤
DYEAR=2009
DGENRE=Punk Rock
TTITLE0=ロンパリンラビン
TTITLE1=絵描き
TTITLE2=終便
TTITLE3=初夏レゲ
EXTD=YEAR: 2009
EXTT0=
EXTT1=
EXTT2=
EXTT3=
PLAYORDER=
